<?xml version="1.0" encoding="utf-8"?>
<!-- Generator: Adobe Illustrator 24.1.2, SVG Export Plug-In . SVG Version: 6.00 Build 0)  -->
<svg version="1.1" id="Layer_1" xmlns="http://www.w3.org/2000/svg" xmlns:xlink="http://www.w3.org/1999/xlink" x="0px" y="0px"
	 viewBox="0 0 100 100" style="enable-background:new 0 0 100 100;" xml:space="preserve">
<style type="text/css">
	.st0{fill:#4D4D4D;}
</style>
<g>
	<path class="st0" d="M72.6,52.8c-4.2,0-8.3,0.2-12.5-0.1c-3.6-0.3-4.8,1.2-4.6,4.6c0.2,3,0.2,6,0,9c-0.3,3.7,1.3,6.2,3.8,8.7
		c4.1,4.2,3.7,9.7-0.5,13.1c-4.3,3.5-10.9,2.7-14.1-1.9c-2.6-3.8-2.5-7.7,0.9-10.8c6.6-6,3.7-13.6,4-20.7c0.1-1.6-1.6-1.9-3-1.9
		c-7.8,0-15.6,0-23.4,0c-2.3,0-3.4,0.8-3.3,3.2c0.1,4.2,0.2,8.3,0.1,12.5c0,2.8,1.9,4.5,3.6,6.3c2.9,3.1,3.8,6.5,1.8,10.5
		c-2.1,4.1-5.7,5.3-10,4.8c-4.1-0.5-6.4-3.1-7.7-6.8c-1.1-3.3,0-5.9,2.4-8c3.1-2.8,4.1-6.2,4-10.3c-0.1-10.1-0.2-20.3,0-30.4
		c0.1-3.9-0.8-7.1-3.9-9.7c-3.5-3-3.9-6.8-1.5-10.7c2.5-4.1,6.2-5.3,10.8-4.1c4.4,1.1,6.6,4.3,7,8.7c0.2,2.1-0.4,4.2-2.1,5.4
		c-4.3,3.2-4.8,7.5-4.5,12.4C20.5,47,20.4,47,31.3,47c4.8,0,9.6-0.1,14.5,0c3,0.1,4.1-1,4.1-4.1c0-7.4,0.7-14.8-5.3-21
		c-3.1-3.2-1.5-8.1,2.3-10.8c4-2.8,9.4-2.4,12.7,1.1c3.1,3.2,3.8,8.4,0.6,11.2c-7.1,6.2-4.2,14.1-4.5,21.5c-0.1,1.6,1.4,2,2.9,2
		c7.8,0,15.6-0.1,23.4,0c2.4,0,3.3-1.1,3.2-3.3c-0.4-7.1,1.8-14.5-4.7-20.5c-3.4-3.2-2-8.9,1.8-11.8c3.7-2.9,9.5-2.6,12.8,0.8
		c3.5,3.6,3.9,8.5,0.4,12c-3.7,3.6-4.8,7.6-4.2,12.6c0.4,3.4-0.3,7-0.1,10.4c0.3,4.6-2.2,5.8-6.1,5.7C80.9,52.8,76.7,52.8,72.6,52.8
		C72.6,52.8,72.6,52.8,72.6,52.8z"/>
</g>
</svg>
