<?xml version="1.0" encoding="utf-8"?>
<!-- Generator: Adobe Illustrator 24.1.2, SVG Export Plug-In . SVG Version: 6.00 Build 0)  -->
<svg version="1.1" id="Layer_1" xmlns="http://www.w3.org/2000/svg" xmlns:xlink="http://www.w3.org/1999/xlink" x="0px" y="0px"
	 viewBox="0 0 100 100" style="enable-background:new 0 0 100 100;" xml:space="preserve">
<style type="text/css">
	.st0{fill:#4D4D4D;}
	.st1{fill:#FEFEFE;}
	.st2{fill:#FBFDF8;}
</style>
<g>
	<path class="st0" d="M275,43.8c-4.2,0-8.3,0.2-12.5-0.1c-3.6-0.3-4.8,1.2-4.6,4.6c0.2,3,0.2,6,0,9c-0.3,3.7,1.3,6.2,3.8,8.7
		c4.1,4.2,3.7,9.7-0.5,13.1c-4.3,3.5-10.9,2.7-14.1-1.9c-2.6-3.8-2.5-7.7,0.9-10.8c6.6-6,3.7-13.6,4-20.7c0.1-1.6-1.6-1.9-3-1.9
		c-7.8,0-15.6,0-23.4,0c-2.3,0-3.4,0.8-3.3,3.2c0.1,4.2,0.2,8.3,0.1,12.5c0,2.8,1.9,4.5,3.6,6.3c2.9,3.1,3.8,6.5,1.8,10.5
		c-2.1,4.1-5.7,5.3-10,4.8c-4.1-0.5-6.4-3.1-7.7-6.8c-1.1-3.3,0-5.9,2.4-8c3.1-2.8,4.1-6.2,4-10.3c-0.1-10.1-0.2-20.3,0-30.4
		c0.1-3.9-0.8-7.1-3.9-9.7c-3.5-3-3.9-6.8-1.5-10.7c2.5-4.1,6.2-5.3,10.8-4.1c4.4,1.1,6.6,4.3,7,8.7c0.2,2.1-0.4,4.2-2.1,5.4
		c-4.3,3.2-4.8,7.5-4.5,12.4C222.9,38,222.8,38,233.7,38c4.8,0,9.6-0.1,14.5,0c3,0.1,4.1-1,4.1-4.1c0-7.4,0.7-14.8-5.3-21
		c-3.1-3.2-1.5-8.1,2.3-10.8c4-2.8,9.4-2.4,12.7,1.1c3.1,3.2,3.8,8.4,0.6,11.2c-7.1,6.2-4.2,14.1-4.5,21.5c-0.1,1.6,1.4,2,2.9,2
		c7.8,0,15.6-0.1,23.4,0c2.4,0,3.3-1.1,3.2-3.3c-0.4-7.1,1.8-14.5-4.7-20.5c-3.4-3.2-2-8.9,1.8-11.8c3.7-2.9,9.5-2.6,12.8,0.8
		c3.5,3.6,3.9,8.5,0.4,12c-3.7,3.6-4.8,7.6-4.2,12.6c0.4,3.4-0.3,7-0.1,10.4c0.3,4.6-2.2,5.8-6.1,5.7
		C283.3,43.8,279.2,43.8,275,43.8C275,43.8,275,43.8,275,43.8z"/>
</g>
<g>
	<path class="st0" d="M159.5-51.7c18.1-11.7,35.6-22.9,54-34.8c0,5.5,0.2,10.1-0.1,14.6c-0.2,3.8,0.7,5.2,4.8,5.1
		c9.6-0.3,19.3,0.1,28.9-0.2c4.2-0.2,4.9,1.4,4.8,5.1c-0.3,6.8-0.3,13.6,0,20.4c0.2,3.8-0.7,5.2-4.8,5.1c-9.8-0.3-19.6,0-29.4-0.2
		c-3.2-0.1-4.5,0.8-4.3,4.2c0.3,4.8,0.1,9.6,0.1,15.4C195.3-28.7,177.8-39.9,159.5-51.7z"/>
</g>
<g>
	<path class="st0" d="M121-61.3c0,9.3-0.1,18.6,0.1,27.9c0.1,2.6-0.6,3.4-3.3,3.4c-15.1-0.1-30.2-0.1-45.3,0c-2.6,0-3.4-0.7-3.4-3.4
		c0.1-18.8,0.1-37.6,0-56.3c0-3.2,1.2-4.2,4.1-3.8c0.3,0,0.7,0,1,0c7.6-0.1,7.6-0.1,7.8-7.5c0.1-4.9,1.9-6.8,7-6.9c4-0.1,8-0.1,12,0
		c5.6,0.1,7.3,1.8,7.3,7.6c0.1,7.4-1.3,7.1,7,6.7c4.8-0.2,6.2,1.1,6,6C120.6-78.9,121-70.1,121-61.3z"/>
	<path class="st0" d="M64.6-61.5c0,9.3-0.1,18.6,0.1,27.9c0,2.8-0.8,3.6-3.6,3.7c-13.1,0.3-13.1,0.4-13.1-12.5c0-13.1,0-26.2,0-39.4
		c0-8.9,5.7-13.4,14.4-11.7c2.8,0.5,2.3,2.4,2.3,4.1C64.6-80.1,64.6-70.8,64.6-61.5z"/>
	<path class="st0" d="M141.9-58.6c0,8.3-0.1,16.6,0.1,25c0.1,2.8-0.8,3.6-3.6,3.6c-13,0.2-13,0.3-13-12.8c0-14.6-0.1-29.3,0.1-43.9
		c0-2.2-1.6-5.8,1.4-6.6c3.5-0.9,7.8-1.4,10.9,1.5c2.5,2.2,4.2,5,4.1,8.7C141.8-74.9,141.9-66.7,141.9-58.6z"/>
	<path class="st0" d="M95-102.6c1.2,0,2.3,0.1,3.5,0c3.7-0.5,4.8,0.8,4.8,4.6c0,3.8-1.2,5.1-4.8,4.6c-2.1-0.3-4.3-0.2-6.5,0
		c-3.4,0.3-5.5-0.1-5.4-4.6c0.1-3.8,1.2-5.1,4.9-4.6C92.7-102.4,93.8-102.6,95-102.6z"/>
</g>
<g>
	<path class="st0" d="M4.5,51.5c0-11.3,0-22.6,0-33.9c0-6.2,0.4-6.6,6.4-6.6c14.8,0,29.6,0.2,44.4,0c8.9-0.1,16.2,3,21.9,9.8
		c5.6,6.8,11.1,13.7,16.7,20.5c4.5,5.4,2.9,11.7,2.9,17.7c0,2.7-3,1.6-4.5,1.7c-10.2,0.7-19,4.3-25.9,12c-3.6,4-6.3,8.6-7.9,13.7
		c-0.9,2.7-2.1,3.6-4.9,3.6c-15-0.1-29.9-0.2-44.9,0c-3.8,0.1-4.3-1.4-4.2-4.6C4.6,74.1,4.5,62.8,4.5,51.5z"/>
	<path class="st1" d="M35.5,17.2c6.8,0,13.6-0.1,20.5,0c6.6,0.1,12.4,2.3,16.8,7.4c4.3,5,8.4,10.3,12.7,15.4c1.2,1.5,2.1,3.2,1.3,5
		c-0.8,1.8-2.9,1.4-4.4,1.4c-22.5,0.2-44.9,0.2-67.4,0.5c-4.1,0-5.6-1.4-5.5-5.6c0.3-6.5,0.2-13,0-19.5c-0.1-3.8,1.5-4.9,5-4.8
		c7,0.2,14,0,21,0C35.5,17.1,35.5,17.1,35.5,17.2z"/>
	<path class="st2" d="M18.3,58.3c-2.4-0.7-6.8,1.2-6.9-1.8c-0.1-3.8,4.4-2.4,6.9-2.3c2.7,0,7.6-1.4,7.6,2.1
		C25.8,59.6,21,57.5,18.3,58.3z"/>
</g>
</svg>
